# Blender v2.78 (sub 0) OBJ File: 'door.blend'
# www.blender.org
mtllib door.mtl
o Cube
v -0.213549 0.038690 4.808608
v -0.213549 0.038691 -0.032907
v 0.213549 0.038691 -0.032906
v 0.213549 0.038690 4.808609
v -0.213549 11.554146 4.808608
v -0.213549 11.554146 -0.032907
v 0.213549 11.554146 -0.032905
v 0.213549 11.554146 4.808609
vt 0.0000 0.6667
vt 0.1721 0.6842
vt 0.1544 0.9364
vt 0.0000 1.0000
vt 0.1746 0.3524
vt 0.1721 0.6635
vt 0.0000 0.6667
vt 0.0000 0.3333
vt 0.5029 0.9403
vt 0.5013 0.0317
vt 0.2176 0.0264
vt 0.2218 0.9401
vt 0.0000 0.3333
vt 0.0000 0.0000
vt 0.1695 0.0509
vt 0.1821 0.3174
vt 0.2001 0.9478
vt 0.2108 0.0313
vt 0.5194 0.0310
vt 0.5042 0.9478
vt 0.1010 0.4431
vt 0.1224 0.6364
vn 0.0000 -1.0000 -0.0000
vn 0.0000 1.0000 0.0000
vn -1.0000 0.0000 -0.0000
vn 0.0000 0.0000 -1.0000
vn 1.0000 -0.0000 0.0000
vn -0.0000 -0.0000 1.0000
usemtl Material.001
s off
f 1/1/1 2/2/1 3/3/1 4/4/1
f 5/5/2 8/6/2 7/7/2 6/8/2
f 1/9/3 5/10/3 6/11/3 2/12/3
f 2/13/4 6/14/4 7/15/4 3/16/4
f 3/17/5 7/18/5 8/19/5 4/20/5
f 5/5/6 1/21/6 4/22/6 8/6/6
